# Blender v3.0.1 OBJ File: ''
# www.blender.org
mtllib floor_raised.mtl
o Cube.001
v 1.997538 -0.000585 1.999874
v 1.997538 0.996568 1.999874
v -1.989839 0.996568 1.999874
v -1.989839 -0.000585 1.999874
v -1.989839 0.996568 -1.997021
v -1.989839 -0.000585 -1.997022
v 1.997538 -0.000585 -1.997022
v 1.997538 0.996568 -1.997021
vt 1.000000 0.584635
vt 1.000000 0.834635
vt 0.000000 0.834635
vt 0.000000 0.584635
vt 0.668776 0.249801
vt 0.668776 0.000000
vt 0.753363 0.000000
vt 0.753363 0.249801
vt -0.000000 0.250000
vt 1.000000 0.250000
vt 1.000000 0.334635
vt -0.000000 0.334635
vt -0.000000 0.584635
vt -0.000000 0.834635
vt 0.998698 0.834635
vt 0.998698 0.584635
vt 1.000000 0.334635
vt 1.000000 0.584635
vt 0.000000 0.584635
vt -0.000000 0.334635
vn 0.0000 -0.0000 1.0000
vn -1.0000 0.0000 0.0000
vn 0.0000 -1.0000 -0.0000
vn 1.0000 0.0000 0.0000
vn 0.0000 0.0000 -1.0000
usemtl Material
s 1
f 1/1/1 2/2/1 3/3/1 4/4/1
f 4/5/2 3/6/2 5/7/2 6/8/2
f 6/9/3 7/10/3 1/11/3 4/12/3
f 7/13/4 8/14/4 2/15/4 1/16/4
f 6/17/5 5/18/5 8/19/5 7/20/5
o Plane.001
v 2.001991 0.993249 1.989928
v -1.996880 0.993249 1.989928
v -1.998107 0.993249 -1.997811
v 2.001991 0.993249 -1.997811
vt 0.000000 0.000000
vt 0.000000 1.000000
vt 1.000000 1.000000
vt 1.000000 0.000000
vn -0.0000 -1.0000 0.0000
usemtl Material.001
s 1
f 9/21/6 10/22/6 11/23/6 12/24/6
