# Blender v3.0.1 OBJ File: 'wall_edge_nw.blend'
# www.blender.org
mtllib wall_edge_nw.mtl
o Cube.002
v -1.997476 0.995466 -1.989494
v -1.997476 0.995466 1.997882
v -1.660196 0.995466 1.997882
v -1.660196 0.995466 -1.989494
v -1.660196 -0.000585 -1.989494
v -1.660196 -0.000585 1.997882
v -1.997476 -0.000585 1.997882
v -1.997476 -0.000585 -1.989494
vt 1.000000 0.919271
vt 0.000000 0.919271
vt 0.000000 0.834635
vt 1.000000 0.834635
vt 1.000000 0.584635
vt 0.000000 0.584635
vt 0.001302 0.584635
vt 0.000000 0.833333
vt 0.084635 0.833333
vt 0.085938 0.584635
vt 0.000000 0.250000
vt 1.000000 0.250000
vt 1.000000 0.334635
vt 0.000000 0.334635
vt 0.913568 0.584436
vt 0.914062 0.834635
vt 1.000000 0.334635
vt 1.000000 0.584635
vt 0.000000 0.584635
vt 0.000000 0.334635
vn 0.0000 1.0000 -0.0000
vn 1.0000 -0.0000 -0.0000
vn 0.0000 0.0000 1.0000
vn -0.0000 -1.0000 -0.0000
vn 0.0000 0.0000 -1.0000
vn -1.0000 0.0000 0.0000
usemtl Material
s 1
f 1/1/1 2/2/1 3/3/1 4/4/1
f 5/5/2 4/4/2 3/3/2 6/6/2
f 6/7/3 3/8/3 2/9/3 7/10/3
f 7/11/4 8/12/4 5/13/4 6/14/4
f 8/15/5 1/16/5 4/4/5 5/5/5
f 7/17/6 2/18/6 1/19/6 8/20/6
o Plane.002
v -1.989928 -0.006751 2.001991
v -1.989928 -0.006751 -1.996880
v 1.997811 -0.006751 -1.998107
v 1.997811 -0.006751 2.001991
v -1.989928 -0.091014 2.001991
v 1.997811 -0.091014 2.001991
v 1.997811 -0.091014 -1.998107
v -1.989928 -0.091014 -1.996880
vt 0.000000 0.000000
vt 0.000000 1.000000
vt 1.000000 1.000000
vt 1.000000 0.000000
vt 0.000000 0.000000
vt 1.000000 0.000000
vt 1.000000 1.000000
vt 0.000000 1.000000
vn -0.0000 -1.0000 -0.0000
vn 0.0000 1.0000 0.0000
vn 0.0003 0.0000 1.0000
vn 0.0000 0.0000 -1.0000
vn -1.0000 0.0000 0.0000
vn 1.0000 0.0000 0.0000
usemtl Material.001
s 1
f 9/21/7 10/22/7 11/23/7 12/24/7
f 13/25/8 14/26/8 15/27/8 16/28/8
f 11/23/9 10/22/9 16/28/9 15/27/9
f 9/21/10 12/24/10 14/26/10 13/25/10
f 12/24/11 11/23/11 15/27/11 14/26/11
f 10/22/12 9/21/12 13/25/12 16/28/12
