# Blender v3.0.1 OBJ File: 'wall_edge_ne.blend'
# www.blender.org
mtllib wall_edge_ne.mtl
o Cube.002
v 1.997538 0.995466 -1.997021
v -1.989839 0.995466 -1.997021
v -1.989839 0.995466 -1.659741
v 1.997538 0.995466 -1.659741
v 1.997538 -0.000585 -1.659742
v -1.989839 -0.000585 -1.659742
v -1.989839 -0.000585 -1.997022
v 1.997538 -0.000585 -1.997022
vt 1.000000 0.919271
vt 0.000000 0.919271
vt 0.000000 0.834635
vt 1.000000 0.834635
vt 1.000000 0.584635
vt 0.000000 0.584635
vt 0.668776 0.249801
vt 0.668776 0.000000
vt 0.753363 0.000000
vt 0.753363 0.249801
vt -0.000000 0.250000
vt 1.000000 0.250000
vt 1.000000 0.334635
vt -0.000000 0.334635
vt 0.913568 0.584436
vt 0.913568 0.834238
vt 0.998698 0.834635
vt 0.998698 0.584635
vt 1.000000 0.334635
vt 1.000000 0.584635
vt 0.000000 0.584635
vt -0.000000 0.334635
vn 0.0000 1.0000 0.0000
vn 0.0000 -0.0000 1.0000
vn -1.0000 0.0000 0.0000
vn 0.0000 -1.0000 -0.0000
vn 1.0000 -0.0000 0.0000
vn 0.0000 0.0000 -1.0000
usemtl Material
s 1
f 1/1/1 2/2/1 3/3/1 4/4/1
f 5/5/2 4/4/2 3/3/2 6/6/2
f 6/7/3 3/8/3 2/9/3 7/10/3
f 7/11/4 8/12/4 5/13/4 6/14/4
f 8/15/5 1/16/5 4/17/5 5/18/5
f 7/19/6 2/20/6 1/21/6 8/22/6
o Plane.002
v -1.989928 -0.006751 2.001991
v -1.989928 -0.006751 -1.996880
v 1.997811 -0.006751 -1.998107
v 1.997811 -0.006751 2.001991
v -1.989928 -0.091014 2.001991
v 1.997811 -0.091014 2.001991
v 1.997811 -0.091014 -1.998107
v -1.989928 -0.091014 -1.996880
vt 0.000000 0.000000
vt 0.000000 1.000000
vt 1.000000 1.000000
vt 1.000000 0.000000
vt 0.000000 0.000000
vt 1.000000 0.000000
vt 1.000000 1.000000
vt 0.000000 1.000000
vn -0.0000 -1.0000 -0.0000
vn 0.0000 1.0000 0.0000
vn 0.0003 0.0000 1.0000
vn 0.0000 0.0000 -1.0000
vn -1.0000 0.0000 0.0000
vn 1.0000 0.0000 0.0000
usemtl Material.001
s 1
f 9/23/7 10/24/7 11/25/7 12/26/7
f 13/27/8 14/28/8 15/29/8 16/30/8
f 11/25/9 10/24/9 16/30/9 15/29/9
f 9/23/10 12/26/10 14/28/10 13/27/10
f 12/26/11 11/25/11 15/29/11 14/28/11
f 10/24/12 9/23/12 13/27/12 16/30/12
