<svg width="378" height="80" viewBox="0 0 378 80" fill="white" xmlns="http://www.w3.org/2000/svg">
<path fill-rule="evenodd" clip-rule="evenodd" d="M49.2308 78.9297C66.872 74.7625 80 58.9143 80 40C80 17.9086 62.0914 0 40 0C17.9086 0 0 17.9086 0 40C0 58.9143 13.128 74.7625 30.7692 78.9297V72.5721C16.563 68.5541 6.15385 55.4926 6.15385 40C6.15385 21.3073 21.3073 6.15385 40 6.15385C58.6927 6.15385 73.8462 21.3073 73.8462 40C73.8462 55.4926 63.437 68.5541 49.2308 72.5721V78.9297Z" fill="#411052"/>
<path fill-rule="evenodd" clip-rule="evenodd" d="M30.7692 66.1166C20.0136 62.315 12.3077 52.0574 12.3077 40C12.3077 24.7059 24.7059 12.3077 40 12.3077C55.294 12.3077 67.6923 24.7059 67.6923 40C67.6923 52.0574 59.9864 62.315 49.2308 66.1166V61.9939C49.2308 60.4498 50.1382 59.0707 51.4456 58.249C57.5086 54.4383 61.5384 47.6898 61.5384 40C61.5384 28.1046 51.8953 18.4615 40 18.4615C28.1046 18.4615 18.4615 28.1046 18.4615 40C18.4615 47.6898 22.4914 54.4383 28.5544 58.249C29.8618 59.0707 30.7692 60.4498 30.7692 61.9939V66.1166Z" fill="#7A1D47"/>
<path fill-rule="evenodd" clip-rule="evenodd" d="M21.5385 40.0001C21.5385 40.0001 30.5791 38.3442 34.4616 34.4616C38.3442 30.5791 40.0001 21.5385 40.0001 21.5385C40.0001 21.5385 41.656 30.5791 45.5385 34.4616C49.4211 38.3442 58.4617 40.0001 58.4617 40.0001C58.4617 40.0001 49.2304 41.4742 45.5385 45.5385C40.1842 51.433 43.8461 80 43.8461 80L36.1538 80C36.1538 80 39.8159 51.433 34.4616 45.5385C30.7698 41.4742 21.5385 40.0001 21.5385 40.0001ZM38.4615 37.6923C37.4539 38.6999 35.3845 39.2308 35.3845 39.2308C35.3845 39.2308 37.4539 39.7616 38.4615 40.7692C39.4691 41.7768 39.9999 43.8462 39.9999 43.8462C39.9999 43.8462 40.5308 41.7768 41.5384 40.7692C42.546 39.7616 44.6153 39.2308 44.6153 39.2308C44.6153 39.2308 42.546 38.6999 41.5384 37.6923C40.5308 36.6847 39.9999 34.6154 39.9999 34.6154C39.9999 34.6154 39.4691 36.6847 38.4615 37.6923Z" fill="#FB923C"/>
<path d="M88 39.4971C88 30.4452 91.8014 26 101.165 26H117.931V33.5163H101.805C97.1634 33.5163 95.5228 33.9609 95.5228 39.4971C95.5228 45.0332 97.1634 45.5181 101.805 45.5181H117.931V53.0345H101.485C91.9215 53.0345 88 48.6702 88 39.4971Z" fill="#27272A"/>
<path d="M157.759 26V53.0345H150.146V42.8915H132.544V53.0345H124.931V26H132.544V36.0621H150.146V26H157.759Z" fill="#27272A"/>
<path d="M195.196 49.0328H174.88L171.297 54L164.759 50.515L181.164 27.9227C182.079 26.661 183.411 26 185.054 26C186.699 26 187.99 26.661 188.905 27.9227L205.31 50.515L198.773 54L195.196 49.0328ZM190.783 42.9041L185.335 35.3334C185.248 35.2132 185.174 35.133 185.054 35.133C184.934 35.133 184.861 35.2132 184.773 35.3334L179.305 42.9041H190.783Z" fill="#27272A"/>
<path d="M239.634 54L231.362 44.8669H220.001V52.8383H212.31V32.0487C212.31 28.1632 214.455 26 218.382 26H235.018C242.913 26 245.988 29.0845 245.988 35.4135C245.988 40.1802 244.018 43.0911 240.187 44.2661L246.103 49.9943L239.627 54H239.634ZM220.001 38.0172H235.504C237.245 38.0172 238.297 37.8169 238.297 35.7339C238.297 33.651 237.245 33.4107 235.504 33.4107H220.406C220.143 33.4107 220.001 33.5508 220.001 33.8112V38.0172Z" fill="#27272A"/>
<path d="M275.79 54C274.199 54 272.846 53.405 271.833 52.0744L261.265 38.1681C261.162 38.0344 261.088 37.9809 260.965 37.9809C260.822 37.9809 260.734 38.0745 260.734 38.2885V53.3514H253.103V31.2951C253.103 27.9656 254.777 26 257.633 26C259.755 26 261.319 26.7489 262.651 28.4871L275.504 45.2817C275.593 45.402 275.695 45.4556 275.797 45.4556C275.893 45.4556 275.994 45.3953 276.083 45.2817L288.936 28.4871C290.261 26.7489 291.832 26 293.954 26C296.811 26 298.483 27.9656 298.483 31.2951V53.3581H290.854V38.2551C290.854 38.0277 290.765 37.9408 290.643 37.9408C290.526 37.9408 290.451 38.0009 290.357 38.1279L279.762 52.0677C278.749 53.3983 277.396 53.9933 275.804 53.9933L275.79 54Z" fill="#27272A"/>
<path d="M305.483 46.973V32.0616C305.483 28.1417 307.675 26 311.687 26H336.379V33.476H313.755C313.486 33.476 313.341 33.6174 313.341 33.88V36.3047H336.379V42.7299H313.341V45.1544C313.341 45.4172 313.486 45.5586 313.755 45.5586H336.379V53.0345H311.687C307.675 53.0345 305.483 50.8927 305.483 46.973Z" fill="#27272A"/>
<path d="M343.379 48.9935V30.7145C343.379 26.7948 343.499 26 347.369 26H364.046C373.381 26 377.172 30.4452 377.172 39.4971C377.172 48.5489 373.262 53.0345 363.727 53.0345H348.034C344.165 53.0345 343.379 52.9132 343.379 48.9935ZM363.408 45.5181C368.036 45.5181 369.672 45.0332 369.672 39.4971C369.672 33.9609 368.036 33.5163 363.408 33.5163H351.319C351.06 33.5163 350.92 33.6578 350.92 33.9204V45.1141C350.92 45.3767 351.06 45.5181 351.319 45.5181H363.408Z" fill="#27272A"/>
</svg>
